<svg width="28" height="28" fill="none" xmlns="http://www.w3.org/2000/svg"><g clip-path="url(#clip0_16_92)"><path d="M26.498 4.756A3.492 3.492 0 0023.813 3.5H4.949L4.9 3.09A3.5 3.5 0 001.426 0h-.26a1.167 1.167 0 100 2.333h.26a1.167 1.167 0 011.158 1.03l1.605 13.65a5.833 5.833 0 005.794 5.154h12.184a1.167 1.167 0 100-2.334H9.983a3.5 3.5 0 01-3.29-2.333H20.6a5.833 5.833 0 005.741-4.799l.916-5.08a3.492 3.492 0 00-.759-2.865zm-1.531 2.452l-.917 5.08a3.5 3.5 0 01-3.45 2.879H6.322L5.224 5.833h18.588a1.166 1.166 0 011.155 1.375z" fill="url(#paint0_linear_16_92)"/><path d="M8.167 28a2.333 2.333 0 100-4.667 2.333 2.333 0 000 4.667z" fill="url(#paint1_linear_16_92)"/><path d="M19.833 28a2.333 2.333 0 100-4.667 2.333 2.333 0 000 4.667z" fill="url(#paint2_linear_16_92)"/></g><defs><linearGradient id="paint0_linear_16_92" x1="6.083" y1="-7.98" x2="28.677" y2="-6.92" gradientUnits="userSpaceOnUse"><stop stop-color="#5E3928"/><stop offset=".911" stop-color="#E4A16F"/></linearGradient><linearGradient id="paint1_linear_16_92" x1="6.873" y1="21.653" x2="10.736" y2="21.8" gradientUnits="userSpaceOnUse"><stop stop-color="#5E3928"/><stop offset=".911" stop-color="#E4A16F"/></linearGradient><linearGradient id="paint2_linear_16_92" x1="18.539" y1="21.653" x2="22.403" y2="21.8" gradientUnits="userSpaceOnUse"><stop stop-color="#5E3928"/><stop offset=".911" stop-color="#E4A16F"/></linearGradient><clipPath id="clip0_16_92"><path fill="#fff" d="M0 0h28v28H0z"/></clipPath></defs></svg>