<svg width="48" height="26" fill="none" xmlns="http://www.w3.org/2000/svg"><path fill-rule="evenodd" clip-rule="evenodd" d="M36.158 21.124h1.097l.01-.053a4.112 4.112 0 018.077.05h1.157v-3.977a3.16 3.16 0 00-.4-1.536l-4.06-7.279a.4.4 0 00-.349-.205h-5.532v13zm-1.5-13.784V1.5H9.833v2.339h4.42a.75.75 0 010 1.5H5.099a.75.75 0 110-1.5h3.235V1.362A1.364 1.364 0 019.696 0h25.1a1.364 1.364 0 011.362 1.362v5.262h5.532a1.9 1.9 0 011.66.974l4.06 7.28c.385.693.588 1.473.588 2.266v4.19a1.29 1.29 0 01-1.287 1.287h-1.37a4.114 4.114 0 01-6.325 2.67 4.112 4.112 0 01-1.76-2.667h-1.849a.75.75 0 01-.067-.003H23.671a4.115 4.115 0 01-6.324 2.671 4.112 4.112 0 01-1.761-2.671H9.083a.75.75 0 01-.75-.75v-5.018H2.528a.75.75 0 010-1.5h9.519a.75.75 0 110 1.5H9.833v4.268h5.753l.01-.05a4.112 4.112 0 018.076.05h10.985V7.374a.78.78 0 01.001-.034zm9.252 14.53v-.02a2.613 2.613 0 00-5.222-.066.752.752 0 010 .177 2.603 2.603 0 00.762 1.755 2.613 2.613 0 004.46-1.827v-.019zm-26.892.093a2.617 2.617 0 00.762 1.753 2.612 2.612 0 10-.762-1.939.753.753 0 010 .186zM9.833 11.942V7.656a.75.75 0 10-1.5 0v4.286H6.35a.75.75 0 100 1.5h13.283a.75.75 0 100-1.5h-9.8zm-3.896-2.46H.75a.75.75 0 110-1.5h5.187a.75.75 0 010 1.5z" fill="url(#paint0_linear_100_1837)"/><defs><linearGradient id="paint0_linear_100_1837" x1="51.136" y1="28.681" x2="-24.676" y2="8.19" gradientUnits="userSpaceOnUse"><stop stop-color="#0B3F37"/><stop offset=".97" stop-color="#CB8D62"/></linearGradient></defs></svg>