<svg width="11" height="18" fill="none" xmlns="http://www.w3.org/2000/svg"><path d="M3.44 9.922H1.262C.91 9.922.8 9.79.8 9.46V6.798c0-.352.132-.462.462-.462H3.44V4.4c0-.88.154-1.716.594-2.486.462-.792 1.122-1.32 1.958-1.628C6.542.088 7.092 0 7.686 0h2.156c.308 0 .44.132.44.44v2.508c0 .308-.132.44-.44.44-.594 0-1.188 0-1.782.022-.594 0-.902.286-.902.902-.022.66 0 1.298 0 1.98H9.71c.352 0 .484.132.484.484v2.662c0 .352-.11.462-.484.462H7.158v7.172c0 .374-.11.506-.506.506h-2.75c-.33 0-.462-.132-.462-.462V9.922z" fill="#fff"/></svg>