<svg width="19" height="18" fill="none" xmlns="http://www.w3.org/2000/svg"><path d="M13.782.001h-9a4.513 4.513 0 00-4.5 4.5v9c0 2.474 2.025 4.5 4.5 4.5h9c2.474 0 4.5-2.026 4.5-4.5v-9c0-2.475-2.026-4.5-4.5-4.5zm3 13.5c0 1.654-1.346 3-3 3h-9c-1.654 0-3-1.346-3-3v-9c0-1.654 1.346-3 3-3h9c1.654 0 3 1.346 3 3v9z" fill="#fff"/><path fill-rule="evenodd" clip-rule="evenodd" d="M1.282 9.501c-.4-5.2 1.166-7.5 2-8l4.5-.5 7 .5 1.5 1 1 2v8l-.5 3-1 1-2.5 1h-2.5l-5-.5c-.834 0-2.6-.1-3-.5a4.034 4.034 0 00-.108-.102c-.464-.431-.928-.862-1.392-6.898zm8-5a4.5 4.5 0 100 9 4.5 4.5 0 000-9zm0 7.5a3 3 0 110-6 3 3 0 010 6zm6-7.876a1.125 1.125 0 11-2.25 0 1.125 1.125 0 012.25 0z" fill="#fff"/></svg>