<svg width="34" height="26" fill="none" xmlns="http://www.w3.org/2000/svg"><path fill-rule="evenodd" clip-rule="evenodd" d="M13.945 2.043h-.996c-5.705 0-10.407 4.384-10.912 9.96h11.908V25.95H0V13c0-.335.013-.667.038-.996C.548 5.327 6.145.05 12.949.05h.996v1.992zm20.055 0h-.996c-5.706 0-10.407 4.384-10.913 9.96H34V25.95H20.055V13c0-.335.012-.667.038-.996C20.603 5.327 26.199.05 33.002.05H34v1.992z" fill="url(#paint0_linear_95_2336)"/><defs><linearGradient id="paint0_linear_95_2336" x1="7.572" y1="-9.273" x2="35.69" y2="-7.868" gradientUnits="userSpaceOnUse"><stop stop-color="#5E3928"/><stop offset=".911" stop-color="#E4A16F"/></linearGradient></defs></svg>