<svg width="21" height="17" fill="none" xmlns="http://www.w3.org/2000/svg"><path d="M20.8 2.002a8.747 8.747 0 01-2.444.676A4.16 4.16 0 0020.228.312a8.98 8.98 0 01-2.704 1.04 4.266 4.266 0 00-7.384 2.912c0 .338.026.65.104.962C6.708 5.07 3.588 3.354 1.482.78c-1.508 2.704.182 4.94 1.3 5.694-.676 0-1.352-.208-1.924-.52 0 2.106 1.482 3.848 3.406 4.239-.416.13-1.352.207-1.924.078.546 1.69 2.132 2.938 3.978 2.963C4.862 14.38 2.73 15.29 0 15.003a12.028 12.028 0 006.552 1.925c7.852 0 12.116-6.5 12.116-12.117 0-.182 0-.364-.026-.546.884-.65 1.612-1.404 2.158-2.262z" fill="#fff"/></svg>