<svg width="50" height="44" fill="none" xmlns="http://www.w3.org/2000/svg"><path d="M24.342 37.436c.158.176.4.28.658.28.257 0 .5-.104.657-.28l17.5-19.584a.65.65 0 00.091-.763.604.604 0 00-.052-.068h.007L37.37 9.043a.866.866 0 00-.704-.317v-.023H13.333v.023a.867.867 0 00-.703.313l-5.834 7.979h.007a.607.607 0 00-.052.067.65.65 0 00.091.764l17.5 19.587zm2.176-27.282h8.63l-4.315 5.902-4.315-5.902zm2.797 6.528h-8.63L25 10.78l4.315 5.902zm-10.149-.626l-4.315-5.902h8.63l-4.315 5.902zm-9.962 2.076h9.323l4.937 15.957-14.26-15.957zm17.363 15.923l2.683-8.452c.11-.382-.151-.77-.587-.875-.435-.104-.888.112-1.02.488l-2.632 8.293-4.757-15.377h9.5l-1.029 3.445a.662.662 0 00.207.719c.216.188.532.26.825.185.293-.074.516-.282.581-.542l1.14-3.807h9.317L26.567 34.055zm14.414-17.373h-8.63l4.315-5.902 4.315 5.902zM13.333 10.78l4.315 5.902h-8.63l4.315-5.902z" fill="url(#paint0_linear_96_15725)"/><path d="M.833 22.485h2.5c.46 0 .834-.325.834-.726 0-.4-.373-.725-.834-.725h-2.5c-.46 0-.833.325-.833.726 0 .4.373.725.833.725z" fill="url(#paint1_linear_96_15725)"/><path d="M46.667 22.485h2.5c.46 0 .833-.325.833-.726 0-.4-.373-.725-.833-.725h-2.5c-.46 0-.834.325-.834.726 0 .4.373.725.834.725z" fill="url(#paint2_linear_96_15725)"/><path d="M25.834 42.793v-2.176c0-.4-.373-.725-.834-.725-.46 0-.833.325-.833.725v2.176c0 .4.373.725.833.725.46 0 .834-.324.834-.725z" fill="url(#paint3_linear_96_15725)"/><path d="M25 3.627c.46 0 .834-.325.834-.726V.725C25.834.325 25.46 0 25 0c-.46 0-.833.325-.833.725v2.176c0 .4.373.726.833.726z" fill="url(#paint4_linear_96_15725)"/><path d="M9.09 34.581l-1.768 1.54a.668.668 0 00-.243.711c.075.258.307.46.603.525a.915.915 0 00.818-.212l1.768-1.538a.66.66 0 00-.01-1.017.924.924 0 00-1.169-.009h.001z" fill="url(#paint5_linear_96_15725)"/><path d="M40.32 9.15a.9.9 0 00.59-.213l1.768-1.539a.667.667 0 00.243-.712c-.075-.258-.307-.46-.603-.525a.915.915 0 00-.818.212l-1.767 1.539a.658.658 0 00-.181.79c.129.271.433.448.77.448h-.001z" fill="url(#paint6_linear_96_15725)"/><path d="M42.088 37.358c.337 0 .64-.177.77-.448a.658.658 0 00-.18-.79l-1.768-1.54a.924.924 0 00-1.168.01.66.66 0 00-.01 1.016l1.768 1.538a.9.9 0 00.588.213z" fill="url(#paint7_linear_96_15725)"/><path d="M9.09 8.937a.924.924 0 001.168-.009.66.66 0 00.01-1.016L8.5 6.373a.915.915 0 00-.818-.212c-.296.066-.528.267-.603.525a.668.668 0 00.243.712l1.768 1.54z" fill="url(#paint8_linear_96_15725)"/><defs><linearGradient id="paint0_linear_96_15725" x1="45.73" y1="40.728" x2="-14.36" y2="29.617" gradientUnits="userSpaceOnUse"><stop stop-color="#0B3F37"/><stop offset=".97" stop-color="#CB8D62"/></linearGradient><linearGradient id="paint1_linear_96_15725" x1="4.439" y1="22.635" x2="-1.563" y2="20.113" gradientUnits="userSpaceOnUse"><stop stop-color="#0B3F37"/><stop offset=".97" stop-color="#CB8D62"/></linearGradient><linearGradient id="paint2_linear_96_15725" x1="50.272" y1="22.635" x2="44.27" y2="20.113" gradientUnits="userSpaceOnUse"><stop stop-color="#0B3F37"/><stop offset=".97" stop-color="#CB8D62"/></linearGradient><linearGradient id="paint3_linear_96_15725" x1="25.943" y1="43.895" x2="23.131" y2="43.706" gradientUnits="userSpaceOnUse"><stop stop-color="#0B3F37"/><stop offset=".97" stop-color="#CB8D62"/></linearGradient><linearGradient id="paint4_linear_96_15725" x1="25.943" y1="4.003" x2="23.131" y2="3.814" gradientUnits="userSpaceOnUse"><stop stop-color="#0B3F37"/><stop offset=".97" stop-color="#CB8D62"/></linearGradient><linearGradient id="paint5_linear_96_15725" x1="10.727" y1="37.691" x2="5.044" y2="36.736" gradientUnits="userSpaceOnUse"><stop stop-color="#0B3F37"/><stop offset=".97" stop-color="#CB8D62"/></linearGradient><linearGradient id="paint6_linear_96_15725" x1="43.173" y1="9.462" x2="37.473" y2="8.505" gradientUnits="userSpaceOnUse"><stop stop-color="#0B3F37"/><stop offset=".97" stop-color="#CB8D62"/></linearGradient><linearGradient id="paint7_linear_96_15725" x1="43.145" y1="37.667" x2="37.502" y2="36.719" gradientUnits="userSpaceOnUse"><stop stop-color="#0B3F37"/><stop offset=".97" stop-color="#CB8D62"/></linearGradient><linearGradient id="paint8_linear_96_15725" x1="10.728" y1="9.453" x2="5.043" y2="8.497" gradientUnits="userSpaceOnUse"><stop stop-color="#0B3F37"/><stop offset=".97" stop-color="#CB8D62"/></linearGradient></defs></svg>