<svg width="49" height="58" fill="none" xmlns="http://www.w3.org/2000/svg"><path d="M24.25.75a1.01 1.01 0 00-.908.559s0 0 0 0l-1 1.993-2.223.32h0a1.006 1.006 0 00-.56 1.725s0 0 0 0l1.604 1.54-.378 2.177v.002c-.069.379.086.762.398.99a1.02 1.02 0 001.067.08L24.248 9.1l1.998 1.035h0a1.02 1.02 0 001.067-.08c.311-.227.467-.61.4-.988 0 0 0 0 0 0l-.378-2.18 1.602-1.539s0 0 0 0a1.008 1.008 0 00-.559-1.728s0 0 0 0l-2.226-.32-.995-1.99s0 0 0 0a1.011 1.011 0 00-.908-.561zm0 0s0 0 0 0V1l-.001-.25s0 0 0 0zm2 7.855l-.32-1.841s0 0 0 0a.676.676 0 01.198-.604h0l.173.18-.173-.18 1.35-1.297-1.876-.27.648 4.012zm0 0l-1.685-.873h0a.685.685 0 00-.63 0m2.315.873l-2.315-.873m-1.046-3.139s0 0 0 0l-1.869.27m1.87-.27l-1.87.27m1.87-.27h0l-.036-.247.035.247zm-1.87.27l1.352 1.297h0a.676.676 0 01.198.604m-1.55-1.901l-.314.045L22.2 6.34a.426.426 0 01.124.381l-.352 2.028.279-.144m.32-1.84l-.247-.044.247.043h0zm0 0l-.32 1.84m0 0l1.685-.873m-1.685.873l-.054.31 1.854-.961a.435.435 0 01.4 0l-.515-.222m0 0l.114.22-.114-.22h0z" fill="url(#paint0_linear_96_15737)" stroke="url(#paint1_linear_96_15737)" stroke-width=".5"/><path d="M18.25 24.564c-.006-1.839.939-3.537 2.47-4.465-1.458-1.965-1.263-4.767.498-6.497a4.654 4.654 0 016.56 0c1.76 1.73 1.956 4.532.499 6.497l2.473 4.465m-12.5 0v0h.25-.25s0 0 0 0zm0 0v3.39c0 .985.776 1.796 1.75 1.796h9c.974 0 1.75-.811 1.75-1.796v-3.39m0 0h-.25.25v0s0 0 0 0zm-10 3.655v.25H20c-.276 0-.5-.23-.5-.515v-3.39c-.002-1.608.958-3.05 2.415-3.626m-1.165 7.281H21v-2.671c0-.285.224-.516.5-.516s.5.231.5.516v2.671h.25m-1.5 0H20a.258.258 0 01-.25-.265v-3.39h0c-.002-1.463.845-2.774 2.133-3.342m-1.133 6.997v-2.671c0-.416.329-.766.75-.766s.75.35.75.766v2.671m0 0v.25h4.5v-.25m-4.5 0h4.5m0 0H27v-2.671c0-.285.224-.516.5-.516s.5.231.5.516v2.671h.25m-1.5 0v-2.671c0-.416.329-.766.75-.766s.75.35.75.766v2.671m0 0v.25H29c.276 0 .5-.23.5-.515v-3.39c.002-1.608-.958-3.05-2.415-3.626m1.165 7.281H29c.131 0 .25-.111.25-.265v-3.39 0c.002-1.463-.845-2.774-2.133-3.342m-.032-.284a4.364 4.364 0 01-5.17 0m5.17 0l.148.202a4.788 4.788 0 01-.116.082m-.032-.284l-.091.232.123.052m-5.203-.284l.092.232a3.199 3.199 0 00-.123.052m.032-.284l-.148.202.116.082m0 0a4.612 4.612 0 005.234 0m-2.617-7.43c1.788 0 3.25 1.495 3.25 3.356 0 1.862-1.462 3.358-3.25 3.358s-3.25-1.496-3.25-3.357c.002-1.86 1.463-3.355 3.25-3.358z" fill="url(#paint2_linear_96_15737)" stroke="url(#paint3_linear_96_15737)" stroke-width=".5"/><path d="M47.566 20.154a2.29 2.29 0 00-1.849.088c-.554.274-.97.766-1.15 1.358l-.533 1.79a6.615 6.615 0 01-2.184 3.365 6.67 6.67 0 00-1.336 1.43 6.513 6.513 0 01-2.108 1.934l-.4.229a2.563 2.563 0 00-1.588-.541 2.52 2.52 0 00-2.1 1.095l-2.705 3.909c-1.197.334-5.345 1.737-7.113 5.323-1.768-3.586-5.916-4.99-7.113-5.323l-2.695-3.899a2.524 2.524 0 00-2.11-1.105 2.563 2.563 0 00-1.588.54l-.393-.223a6.533 6.533 0 01-2.123-1.945 6.666 6.666 0 00-1.331-1.423 6.615 6.615 0 01-2.185-3.367L4.43 21.6a2.239 2.239 0 00-1.146-1.357 2.286 2.286 0 00-1.85-.088A2.256 2.256 0 000 22.27v2.942a6.26 6.26 0 00.708 2.883l1.497 2.899a6.46 6.46 0 001.25 1.68L7.832 36.9c3.07 3.295 7.393 8.593 7.393 10.064a7.665 7.665 0 01-1.096 2.969 2.403 2.403 0 00.068 2.376 2.471 2.471 0 002.137 1.19h4.9a2.473 2.473 0 002.232-1.351 16.32 16.32 0 001.034-2.763c.26.95.607 1.875 1.034 2.763a2.474 2.474 0 002.233 1.352h4.9a2.472 2.472 0 002.137-1.19c.44-.725.467-1.629.069-2.377a7.674 7.674 0 01-1.098-2.97c0-1.47 4.323-6.768 7.364-10.032l4.41-4.257a6.476 6.476 0 001.246-1.68l1.492-2.891A6.255 6.255 0 0049 25.215v-2.941a2.254 2.254 0 00-1.434-2.12zm-25.562 31.26a.85.85 0 01-.77.452h-4.9a.84.84 0 01-.74-.401.77.77 0 01-.02-.773 8.733 8.733 0 001.285-3.728c0-2.639-6.525-9.775-7.863-11.21l-4.41-4.256a4.804 4.804 0 01-.935-1.254l-1.493-2.9a4.61 4.61 0 01-.525-2.129v-2.941a.622.622 0 01.63-.637.66.66 0 01.293.068.597.597 0 01.311.36l.533 1.788a8.236 8.236 0 002.739 4.185 5 5 0 01.999 1.07 8.158 8.158 0 002.645 2.429l.332.19a2.386 2.386 0 00-.075.564c.004.273.05.545.14.804.197.552.384 1.149.539 1.72a8.073 8.073 0 002.176 3.71c.021.02.044.04.067.057l4.271 3.309a.817.817 0 101-1.292l-4.235-3.28a6.428 6.428 0 01-1.702-2.932 23.41 23.41 0 00-.572-1.82.756.756 0 01.084-.71c.007-.01.008-.02.014-.03.007-.01.024-.03.034-.045a.971.971 0 011.483.05l2.875 4.158c.118.171.297.29.5.335.286.062 6.97 1.584 6.97 7.37a18.478 18.478 0 01-1.677 7.718h-.003zm25.363-26.199a4.61 4.61 0 01-.527 2.133l-1.494 2.896c-.241.466-.557.89-.936 1.254l-4.436 4.288c-1.307 1.403-7.832 8.539-7.832 11.178a8.73 8.73 0 001.283 3.728.77.77 0 01-.019.773.84.84 0 01-.74.4h-4.9a.85.85 0 01-.772-.452 18.481 18.481 0 01-1.677-7.717c0-5.787 6.683-7.309 6.969-7.371a.822.822 0 00.498-.335l2.882-4.166a.937.937 0 011.477-.042c.01.016.023.03.033.045.01.015.008.02.014.03a.762.762 0 01.09.692c-.208.59-.407 1.225-.576 1.842A6.422 6.422 0 0135 37.319l-4.235 3.28a.818.818 0 001.003 1.292l4.27-3.309a.711.711 0 00.068-.058 8.068 8.068 0 002.175-3.706c.156-.572.343-1.17.546-1.742.086-.253.131-.518.134-.785a2.386 2.386 0 00-.076-.564l.34-.195a8.136 8.136 0 002.634-2.418 5.01 5.01 0 011.004-1.077 8.23 8.23 0 002.737-4.182l.533-1.79a.6.6 0 01.312-.36.675.675 0 01.548-.02c.233.1.38.332.374.585l-.001 2.945z" fill="url(#paint4_linear_96_15737)"/><path d="M35.23 12.745l-1.501 1.75a.975.975 0 00-.204.852c.068.306.273.544.535.625a.681.681 0 00.73-.24l1.5-1.75a.982.982 0 00-.01-1.226.676.676 0 00-1.05-.01z" fill="url(#paint5_linear_96_15737)"/><path d="M35 17.75c0 .414.392.75.875.75h1.75c.483 0 .875-.336.875-.75s-.392-.75-.875-.75h-1.75c-.483 0-.875.336-.875.75z" fill="url(#paint6_linear_96_15737)"/><path d="M14.748 16c.304 0 .578-.214.695-.542a.987.987 0 00-.163-.956l-1.505-1.756a.678.678 0 00-1.055.011.985.985 0 00-.009 1.23l1.505 1.756a.702.702 0 00.532.257z" fill="url(#paint7_linear_96_15737)"/><path d="M10.5 17.75c0 .414.392.75.875.75h1.75c.483 0 .875-.336.875-.75s-.392-.75-.875-.75h-1.75c-.483 0-.875.336-.875.75z" fill="url(#paint8_linear_96_15737)"/><defs><linearGradient id="paint0_linear_96_15737" x1="29.621" y1="10.935" x2="13.895" y2="8.506" gradientUnits="userSpaceOnUse"><stop stop-color="#0B3F37"/><stop offset=".97" stop-color="#CB8D62"/></linearGradient><linearGradient id="paint1_linear_96_15737" x1="20.489" y1="2.853" x2="26.617" y2="2.557" gradientUnits="userSpaceOnUse"><stop stop-color="#847153"/><stop offset="1" stop-color="#395242"/></linearGradient><linearGradient id="paint2_linear_96_15737" x1="31.285" y1="31.265" x2="11.161" y2="29.187" gradientUnits="userSpaceOnUse"><stop stop-color="#0B3F37"/><stop offset=".97" stop-color="#CB8D62"/></linearGradient><linearGradient id="paint3_linear_96_15737" x1="19.75" y1="16" x2="27.5" y2="15.75" gradientUnits="userSpaceOnUse"><stop stop-color="#847153"/><stop offset="1" stop-color="#395242"/></linearGradient><linearGradient id="paint4_linear_96_15737" x1="52.204" y1="56.979" x2="-27.208" y2="39.984" gradientUnits="userSpaceOnUse"><stop stop-color="#0B3F37"/><stop offset=".97" stop-color="#CB8D62"/></linearGradient><linearGradient id="paint5_linear_96_15737" x1="36.696" y1="16.363" x2="31.691" y2="15.736" gradientUnits="userSpaceOnUse"><stop stop-color="#0B3F37"/><stop offset=".97" stop-color="#CB8D62"/></linearGradient><linearGradient id="paint6_linear_96_15737" x1="38.729" y1="18.656" x2="33.416" y2="16.842" gradientUnits="userSpaceOnUse"><stop stop-color="#0B3F37"/><stop offset=".97" stop-color="#CB8D62"/></linearGradient><linearGradient id="paint7_linear_96_15737" x1="15.696" y1="16.363" x2="10.69" y2="15.736" gradientUnits="userSpaceOnUse"><stop stop-color="#0B3F37"/><stop offset=".97" stop-color="#CB8D62"/></linearGradient><linearGradient id="paint8_linear_96_15737" x1="14.229" y1="18.656" x2="8.916" y2="16.842" gradientUnits="userSpaceOnUse"><stop stop-color="#0B3F37"/><stop offset=".97" stop-color="#CB8D62"/></linearGradient></defs></svg>