<svg width="50" height="51" fill="none" xmlns="http://www.w3.org/2000/svg"><path d="M48.578.244L45 3.822V.833a.833.833 0 00-1.422-.589l-5 5a.834.834 0 00-.245.59v4.655l-1.956 1.956a21.593 21.593 0 00-12.21-5.63V5a2.5 2.5 0 100-5h-5a2.5 2.5 0 000 5v1.815a21.565 21.565 0 00-10.913 4.519L6.822 9.9a2.61 2.61 0 00-3.579 0 2.534 2.534 0 000 3.588l1.429 1.429c-7.154 9.048-5.966 22.114 2.702 29.723 8.669 7.609 21.779 7.093 29.823-1.174 8.043-8.267 8.2-21.386.358-29.843l1.957-1.956h4.655a.833.833 0 00.589-.244l5-5A.834.834 0 0049.166 5h-2.988l3.578-3.577A.833.833 0 0048.578.244zM40 6.178l3.333-3.333v2.643L40 8.822V6.178zM18.333 2.5c0-.46.373-.833.833-.833h5a.833.833 0 110 1.666h-5a.833.833 0 01-.833-.833zm2.5 2.5H22.5v1.688c-.277-.01-.555-.021-.834-.021-.279 0-.556.01-.833.02V5zm-16.41 7.311a.867.867 0 01.005-1.237.827.827 0 01.604-.24.85.85 0 01.611.25l1.339 1.333a21.98 21.98 0 00-1.226 1.226L4.422 12.31zm37.244 16.023a20.029 20.029 0 01-38.364 8.089 20.029 20.029 0 0131.896-22.8L34.021 14.8c-7.367-6.726-18.758-6.338-25.65.874-6.892 7.212-6.763 18.609.291 25.663 7.054 7.054 18.45 7.183 25.663.291 7.213-6.892 7.6-18.282.874-25.65l1.178-1.178a19.923 19.923 0 015.29 13.533zm-17.5 0a2.5 2.5 0 11-2.5-2.5c.37.002.736.087 1.07.25l-1.66 1.66a.833.833 0 101.178 1.178l1.661-1.659c.163.334.249.7.25 1.071zm-.207-3.473a4.18 4.18 0 101.179 1.179l2.381-2.382a7.52 7.52 0 11-1.178-1.178l-2.382 2.38zm3.568-3.567a9.181 9.181 0 101.178 1.178l2.356-2.356c4.456 5.091 4.071 12.798-.869 17.42-4.94 4.623-12.656 4.495-17.44-.29-4.784-4.783-4.912-12.499-.29-17.439 4.623-4.94 12.33-5.325 17.42-.87l-2.355 2.357zm3.534-3.534c-5.747-5.11-14.516-4.725-19.792.87-5.276 5.596-5.147 14.372.29 19.81 5.438 5.438 14.215 5.566 19.81.29 5.595-5.276 5.98-14.045.87-19.792l1.767-1.767c6.08 6.742 5.676 17.102-.912 23.348-6.588 6.246-16.956 6.099-23.364-.332-6.407-6.43-6.518-16.798-.249-23.364 6.27-6.566 16.631-6.934 23.351-.83l-1.77 1.767zM47.155 6.667L43.822 10h-2.644l3.334-3.333h2.643z" fill="url(#paint0_linear_96_15718)"/><defs><linearGradient id="paint0_linear_96_15718" x1="53.269" y1="55.218" x2="-29.7" y2="43.084" gradientUnits="userSpaceOnUse"><stop stop-color="#0B3F37"/><stop offset=".97" stop-color="#CB8D62"/></linearGradient></defs></svg>