<svg width="50" height="50" fill="none" xmlns="http://www.w3.org/2000/svg"><path d="M25 28.333c.319 0 .631-.089.902-.258 9.885-6.22 12.545-16.096 13.25-21.43a1.66 1.66 0 00-1.409-1.877c-3.301-.489-8.017-1.655-11.735-4.43a1.673 1.673 0 00-2.017 0c-3.716 2.774-8.433 3.941-11.734 4.43a1.66 1.66 0 00-1.409 1.876c.704 5.333 3.364 15.212 13.25 21.431.27.17.583.259.902.258zM12.5 6.417c3.492-.518 8.492-1.762 12.51-4.745C29.007 4.657 34.007 5.9 37.5 6.426c-.667 5.045-3.177 14.382-12.486 20.24a.05.05 0 01-.029 0C15.677 20.809 13.167 11.472 12.5 6.417z" fill="#fff"/><path d="M26.017 23.942A25.825 25.825 0 0035.24 9.468 1.667 1.667 0 0034 7.438a29.011 29.011 0 01-8.15-3.205 1.658 1.658 0 00-1.7 0A29.02 29.02 0 0116 7.437a1.666 1.666 0 00-1.236 2.03 25.82 25.82 0 009.218 14.475 1.677 1.677 0 002.035 0zM16.386 9.059A30.56 30.56 0 0025 5.667a30.93 30.93 0 008.626 3.403 24.13 24.13 0 01-8.633 13.546 24.113 24.113 0 01-8.608-13.557z" fill="#fff"/><path d="M20.607 11.358a.833.833 0 10-1.549.617 22.52 22.52 0 003.559 6.056.834.834 0 101.284-1.063 20.877 20.877 0 01-3.294-5.61z" fill="#fff"/><path d="M5.012 28.323c.083 3.304.718 5.667 2.176 7.82a5.203 5.203 0 00-4.063 1.74 1.46 1.46 0 00.125 2.059l1.867 1.661a5.208 5.208 0 007.276-.35 27.806 27.806 0 006.309 3.17 5.197 5.197 0 00-2.035 4.119A1.46 1.46 0 0018.125 50h2.5A5.206 5.206 0 0025 47.608 5.206 5.206 0 0029.375 50h2.5a1.46 1.46 0 001.458-1.458 5.197 5.197 0 00-2.031-4.119 27.805 27.805 0 006.308-3.166 5.208 5.208 0 007.276.35l1.864-1.665a1.46 1.46 0 00.12-2.06 5.199 5.199 0 00-4.062-1.74c1.459-2.155 2.09-4.515 2.177-7.819A5.21 5.21 0 0050 23.125v-2.5a1.46 1.46 0 00-1.458-1.458c-1.316 0-2.582.5-3.542 1.4v-2.234a.833.833 0 00-1.667 0v2.234c-.96-.9-2.226-1.4-3.541-1.4a1.46 1.46 0 00-1.459 1.458v2.5a5.21 5.21 0 004.99 5.198 13.63 13.63 0 01-1.065 5.416 5.175 5.175 0 00-1.2-2.393 1.448 1.448 0 00-1.005-.487 1.426 1.426 0 00-1.054.366l-1.868 1.662a5.212 5.212 0 00-.633 7.099 30.474 30.474 0 01-3.681 2.052c.34-.701.516-1.47.516-2.25a1.46 1.46 0 00-1.458-1.455h-2.5A5.206 5.206 0 0025 40.726a5.206 5.206 0 00-4.375-2.393h-2.5a1.46 1.46 0 00-1.458 1.459c0 .779.177 1.548.516 2.25a30.486 30.486 0 01-3.683-2.056 5.212 5.212 0 00-.633-7.1L11 31.227a1.432 1.432 0 00-1.053-.367c-.388.021-.75.196-1.007.487a5.176 5.176 0 00-1.2 2.393 13.63 13.63 0 01-1.064-5.416 5.211 5.211 0 004.99-5.198v-2.5a1.46 1.46 0 00-1.458-1.458c-1.315 0-2.581.5-3.541 1.4v-2.234a.833.833 0 00-1.667 0v2.234c-.96-.9-2.226-1.4-3.542-1.4A1.46 1.46 0 000 20.625v2.5a5.21 5.21 0 005.012 5.198zm1.21 12.035l-1.708-1.52a3.548 3.548 0 014.857-.14l1.708 1.52a3.548 3.548 0 01-4.857.14zm14.403 7.975h-2.286A3.546 3.546 0 0121.875 45h2.286a3.546 3.546 0 01-3.536 3.333zm8.75 0A3.546 3.546 0 0125.839 45h2.286a3.546 3.546 0 013.536 3.333h-2.286zm16.11-9.495l-1.707 1.52a3.548 3.548 0 01-4.857-.14l1.708-1.52a3.547 3.547 0 014.857.14zm2.848-17.999v2.286A3.547 3.547 0 0145 26.661v-2.286a3.547 3.547 0 013.333-3.536zM40 23.125v-2.286a3.547 3.547 0 013.333 3.536v2.286A3.547 3.547 0 0140 23.125zm-1.76 11.007l1.707-1.519a3.544 3.544 0 01-.393 4.804l-.052.054-1.689 1.5a3.546 3.546 0 01.426-4.84zM29.374 40h2.286a3.546 3.546 0 01-3.536 3.333h-2.286A3.546 3.546 0 0129.375 40zm-11.036 0h2.286a3.546 3.546 0 013.536 3.333h-2.286A3.546 3.546 0 0118.339 40zm-8.286-7.387l1.708 1.519a3.546 3.546 0 01.426 4.84l-1.689-1.5-.052-.053a3.544 3.544 0 01-.393-4.806zM10 20.84v2.286a3.547 3.547 0 01-3.333 3.536v-2.286A3.547 3.547 0 0110 20.839zm-8.333 0A3.547 3.547 0 015 24.375v2.286a3.547 3.547 0 01-3.333-3.536v-2.286z" fill="#fff"/></svg>