<svg width="43" height="43" fill="none" xmlns="http://www.w3.org/2000/svg"><path d="M21.17 11.215c-2.298-.28-3.598-.54-3.598-2.46 0-1.694 2.053-2.46 3.515-2.46 2.657 0 3.563 1.483 3.605 1.56a.708.708 0 001.23-.702c-.049-.085-1.131-1.982-4.133-2.242V3.484a.703.703 0 00-1.405 0v1.448c-2.158.239-4.218 1.56-4.218 3.823 0 3.255 2.812 3.606 4.836 3.86 2.299.287 3.599.547 3.599 2.466 0 3.451-6.143 2.566-7.233 1.61a.706.706 0 00-.998.998c.12.12 1.202 1.096 4.014 1.258v1.406a.703.703 0 001.405 0v-1.406c3.093-.246 4.218-2.108 4.218-3.838 0-3.282-2.812-3.633-4.836-3.894zm.62 30.225v-7.732a.703.703 0 10-1.406 0v7.732a.703.703 0 001.405 0zm3.514-3.515v-9.84a.703.703 0 00-1.406 0v9.84a.703.703 0 001.406 0zm-7.029 0v-6.326a.703.703 0 00-1.406 0v6.326a.703.703 0 001.406 0z" fill="#fff"/><path d="M31.94 6.949a11.949 11.949 0 00-21.706 0C1.785 9.809 0 14.266 0 17.54v21.79a2.811 2.811 0 105.623 0v-2.109h.703a3.514 3.514 0 003.514-3.514v-1.406h.703a3.514 3.514 0 003.515-3.514c0-2.538-.169-4.984.703-6.734a11.865 11.865 0 0012.61 0c.885 1.736.702 4.049.702 6.734a3.514 3.514 0 003.515 3.514h.703v1.406a3.514 3.514 0 003.514 3.514h.703v2.109a2.811 2.811 0 105.623 0V17.54c.042-3.275-1.743-7.731-10.192-10.592zM12.651 28.788a2.109 2.109 0 01-2.109 2.108H9.84V19.65a.703.703 0 10-1.405 0v14.058a2.109 2.109 0 01-2.109 2.108h-.703V23.164a.703.703 0 10-1.406 0v16.167a1.406 1.406 0 11-2.811 0V17.54c0-3.83 2.755-6.81 8.195-8.87a11.886 11.886 0 004.02 12.567c-1.18 2.144-.97 4.949-.97 7.55zm-2.109-16.87c0-5.823 4.72-10.543 10.544-10.543 5.823 0 10.543 4.72 10.543 10.543 0 5.823-4.72 10.544-10.543 10.544a10.544 10.544 0 01-10.544-10.544zm30.224 27.413a1.406 1.406 0 01-2.811 0V23.164a.703.703 0 00-1.406 0v12.652h-.703a2.109 2.109 0 01-2.108-2.108V19.65a.703.703 0 00-1.406 0v11.246h-.703a2.109 2.109 0 01-2.109-2.108c0-2.587.211-5.42-.97-7.55a11.879 11.879 0 004.02-12.567c5.441 2.06 8.196 5.04 8.196 8.87v21.79z" fill="#fff"/></svg>