<svg width="42" height="42" fill="none" xmlns="http://www.w3.org/2000/svg"><path d="M21 0A20.943 20.943 0 007.053 5.303 1.05 1.05 0 008.196 7.04 15.236 15.236 0 0114.7 5.6a15.4 15.4 0 11-6.5 29.364 1.05 1.05 0 00-1.14 1.738 20.888 20.888 0 0014.672 5.285c10.76-.442 19.468-8.9 20.226-19.642a20.84 20.84 0 00-5.65-15.724A21.085 21.085 0 0021 0zm19.56 22.26A19.6 19.6 0 019.774 37.067c1.71.523 3.49.77 5.277.733A16.8 16.8 0 109.774 4.934 19.6 19.6 0 0140.561 22.26z" fill="#fff"/><path d="M1.002 20.365a1.035 1.035 0 000 1.272C1.907 22.82 6.72 28.7 12.6 28.7c5.88 0 10.693-5.88 11.598-7.064a1.034 1.034 0 000-1.271C23.293 19.184 18.48 13.3 12.6 13.3c-5.88 0-10.692 5.884-11.598 7.065zm21.553 1.076c-1.514 1.8-5.434 5.86-9.955 5.86-4.52 0-8.441-4.06-9.955-5.86a12.016 12.016 0 014.672-3.01 5.6 5.6 0 1010.57.008 12.18 12.18 0 014.668 3.002zM8.4 20.301a4.067 4.067 0 01.795-2.43 15.735 15.735 0 016.813.005c.517.702.795 1.552.792 2.424a4.2 4.2 0 11-8.4 0zm4.2-5.6c2.652 0 5.094 1.4 6.97 2.921A16.054 16.054 0 0012.6 16.1a16.054 16.054 0 00-6.97 1.522C7.505 16.1 9.947 14.7 12.6 14.7zm.7-3.501V8.4a.7.7 0 00-1.4 0v2.8a.7.7 0 101.4 0zm-4.9 1.4a.7.7 0 00.664-.921l-.7-2.1a.7.7 0 00-1.33.442l.7 2.1a.7.7 0 00.666.48zm-4.405-.495a.7.7 0 00-.99.99l1.4 1.4a.7.7 0 10.99-.99l-1.4-1.4zm-3.09 5.19a.7.7 0 10.99-.99l-.7-.7a.7.7 0 10-.99.99l.7.7zM16.8 12.6a.7.7 0 00.664-.479l.7-2.1a.7.7 0 10-1.33-.442l-.7 2.1a.7.7 0 00.666.921zm3.995 1.895l1.4-1.4a.7.7 0 00-.99-.99l-1.4 1.4a.7.7 0 10.99.99zm4.2 1.11a.7.7 0 00-.99 0l-.7.7a.7.7 0 10.99.99l.7-.7a.7.7 0 000-.99zM11.9 30.8v2.8a.7.7 0 101.4 0v-2.8a.7.7 0 10-1.4 0zm-4.164-.92l-.7 2.1a.7.7 0 001.33.442l.7-2.1a.701.701 0 00-1.33-.443zm-3.331-2.375l-1.4 1.4a.7.7 0 10.99.99l1.4-1.4a.7.7 0 00-.99-.99zm-3.5-2.8l-.7.7a.7.7 0 10.99.99l.7-.7a.7.7 0 00-.99-.99zm15.674 4.731a.7.7 0 00-.443.885l.7 2.1a.7.7 0 101.33-.442l-.7-2.1a.7.7 0 00-.887-.443zm4.216-1.931a.7.7 0 00-.99.99l1.4 1.4a.7.7 0 00.99-.99l-1.4-1.4zm3.5-2.8a.7.7 0 00-.99.99l.7.7a.7.7 0 00.99-.99l-.7-.7z" fill="#fff"/><path d="M12.6 23.1a2.1 2.1 0 100-4.2 2.1 2.1 0 000 4.2zm0-2.8a.7.7 0 110 1.4.7.7 0 010-1.4z" fill="#fff"/></svg>