<svg width="32" height="42" fill="none" xmlns="http://www.w3.org/2000/svg"><path d="M8.3 42h15.4a2.1 2.1 0 002.1-2.1v-4.222A15.307 15.307 0 0031.4 23.8a14.37 14.37 0 00-4.218-10.43l1.226-1.226c.267.13.56.198.858.2h.077a2.075 2.075 0 001.58-.744v-.004a2.158 2.158 0 00-.182-2.89L27.83 5.79a2.04 2.04 0 00-1.435-.61h-.078a2.049 2.049 0 00-1.456.61 2.105 2.105 0 00-.41 2.391L22.685 9.95a15.135 15.135 0 00-2.073-.849C19.168 3.5 12.752.782 10.81.08a1.41 1.41 0 00-1.467.33L8.027 1.703c-.277.27-.432.64-.427 1.027.004.388.165.759.447 1.026a11.209 11.209 0 013.245 5.38A15.4 15.4 0 006.2 35.678V39.9A2.1 2.1 0 008.3 42zM25.358 9.256a.7.7 0 00.988-.99l-.495-.495a.7.7 0 010-.988.672.672 0 01.49-.202h.014a.625.625 0 01.486.2l2.912 2.913a.76.76 0 01.1.999.634.634 0 01-.55.249.621.621 0 01-.482-.2l-.495-.495a.7.7 0 00-.99.989l-2.355 2.353A1.4 1.4 0 1123 11.611l2.358-2.355zM2 23.8a13.963 13.963 0 019.715-13.333 1.41 1.41 0 00.946-1.684 13.015 13.015 0 00-3.653-6.08L10.343 1.4c1.77.64 7.64 3.113 8.914 8.054.119.469.473.843.936.986.508.163 1.007.357 1.492.58a2.8 2.8 0 004.286 3.56l.222-.222A13.025 13.025 0 0130 23.8a13.921 13.921 0 01-5.333 10.99l-.004.004a14.022 14.022 0 01-2.665 1.656.7.7 0 10.6 1.264 15.4 15.4 0 001.802-1.012V39.9a.7.7 0 01-.7.7H8.3a.7.7 0 01-.7-.7v-3.197c.576.378 1.178.717 1.8 1.014a.7.7 0 00.6-1.264A14.012 14.012 0 017.34 34.8l-.005-.006A13.92 13.92 0 012 23.8z" fill="#fff"/><path d="M15.991 36.4a12.6 12.6 0 0011.334-18.123 1.407 1.407 0 00-1.26-.776H5.935c-.533 0-1.02.3-1.26.777a12.606 12.606 0 0011.316 18.123zM5.935 18.9h20.137a11.196 11.196 0 01-9.45 16.082A11.19 11.19 0 015.935 18.9z" fill="#fff"/><path d="M15.3 31.5a2.1 2.1 0 100-4.2 2.1 2.1 0 000 4.2zm0-2.8a.7.7 0 110 1.4.7.7 0 010-1.4zm7.7.7a2.1 2.1 0 100-4.2 2.1 2.1 0 000 4.2zm0-2.8a.7.7 0 110 1.4.7.7 0 010-1.4zm1.4-2.8a.7.7 0 100-1.4.7.7 0 000 1.4zm-4.9 8.4a.7.7 0 100-1.4.7.7 0 000 1.4zm-9.8-1.4a.7.7 0 100-1.4.7.7 0 000 1.4zm2.1-3.5a.7.7 0 100-1.4.7.7 0 000 1.4zm-4.2 0a.7.7 0 100-1.4.7.7 0 000 1.4zm10.5-1.4a2.8 2.8 0 100-5.6 2.8 2.8 0 000 5.6zm0-4.2a1.4 1.4 0 110 2.8 1.4 1.4 0 010-2.8zm-8.4 2.8a2.1 2.1 0 100-4.2 2.1 2.1 0 000 4.2zm0-2.8a.7.7 0 110 1.4.7.7 0 010-1.4z" fill="#fff"/></svg>