<svg width="46" height="46" fill="none" xmlns="http://www.w3.org/2000/svg"><g clip-path="url(#clip0_33_261)" fill="#fff"><path d="M19.167 20.125c0 2.193 3.2 3.456 3.564 3.594a.776.776 0 00.537 0c.366-.138 3.565-1.401 3.565-3.594a2.554 2.554 0 00-2.606-2.492 2.228 2.228 0 00-1.227.345 2.226 2.226 0 00-1.227-.345 2.554 2.554 0 00-2.606 2.492zm2.606-.958a.823.823 0 01.673.337.788.788 0 001.108 0 .823.823 0 01.673-.337 1.02 1.02 0 011.073.958c0 .81-1.408 1.656-2.3 2.047-.891-.39-2.3-1.238-2.3-2.047.034-.56.513-.987 1.073-.958z"/><path d="M44.654 14.71a2.15 2.15 0 00-1.736.081 2.1 2.1 0 00-1.08 1.275l-.5 1.68a6.208 6.208 0 01-2.05 3.157 6.274 6.274 0 00-1.254 1.343 6.115 6.115 0 01-1.98 1.814l-.375.215a2.407 2.407 0 00-1.491-.508 2.367 2.367 0 00-1.972 1.028l-2.538 3.668c-1.124.313-5.018 1.63-6.678 4.995-1.66-3.365-5.553-4.682-6.678-4.995l-2.53-3.659a2.37 2.37 0 00-1.98-1.037 2.406 2.406 0 00-1.49.508l-.37-.21A6.13 6.13 0 017.96 22.24a6.257 6.257 0 00-1.25-1.336 6.207 6.207 0 01-2.05-3.16l-.501-1.678a2.102 2.102 0 00-1.076-1.274 2.147 2.147 0 00-1.736-.083A2.117 2.117 0 000 16.695v2.76c.001.942.23 1.87.665 2.706l1.405 2.72a6.063 6.063 0 001.173 1.577l4.11 3.965c2.881 3.092 6.94 8.064 6.94 9.444a7.192 7.192 0 01-1.03 2.786c-.373.702-.35 1.55.065 2.23A2.32 2.32 0 0015.333 46h4.6a2.324 2.324 0 002.096-1.269c.402-.833.726-1.7.97-2.592.246.891.57 1.759.972 2.592a2.323 2.323 0 002.096 1.27h4.6a2.321 2.321 0 002.006-1.118c.414-.68.438-1.528.064-2.23a7.198 7.198 0 01-1.03-2.786c0-1.38 4.059-6.352 6.913-9.415l4.14-3.994a6.08 6.08 0 001.17-1.577l1.4-2.713a5.867 5.867 0 00.67-2.71v-2.76a2.115 2.115 0 00-1.346-1.989zM20.657 44.041a.798.798 0 01-.724.425h-4.6a.788.788 0 01-.693-.377.722.722 0 01-.019-.725 8.194 8.194 0 001.205-3.498c0-2.476-6.125-9.172-7.38-10.519l-4.14-3.994a4.51 4.51 0 01-.878-1.177l-1.402-2.72a4.325 4.325 0 01-.493-1.999v-2.76a.583.583 0 01.592-.598c.095 0 .189.022.274.065.14.067.246.19.293.338l.5 1.677a7.728 7.728 0 002.571 3.927c.36.287.676.626.938 1.005a7.657 7.657 0 002.483 2.279l.312.178a2.24 2.24 0 00-.07.529c.003.257.047.512.13.755.185.518.36 1.078.507 1.614a7.574 7.574 0 002.043 3.48c.02.02.04.038.063.055l4.01 3.105a.767.767 0 00.938-1.213l-3.976-3.078a6.032 6.032 0 01-1.598-2.751 21.912 21.912 0 00-.536-1.708.71.71 0 01.079-.667c.005-.009.006-.019.012-.028.006-.01.023-.027.032-.042a.912.912 0 011.392.047l2.7 3.903a.77.77 0 00.468.314c.27.058 6.543 1.486 6.543 6.916.004 2.5-.533 4.97-1.574 7.242h-.002zm23.81-24.584a4.322 4.322 0 01-.495 2.002l-1.402 2.717a4.52 4.52 0 01-.879 1.177l-4.165 4.023c-1.227 1.318-7.352 8.014-7.352 10.49a8.188 8.188 0 001.205 3.498.722.722 0 01-.018.725.788.788 0 01-.694.377h-4.6a.798.798 0 01-.726-.425 17.335 17.335 0 01-1.574-7.242c0-5.43 6.274-6.858 6.542-6.916a.771.771 0 00.468-.314l2.706-3.91a.88.88 0 011.386-.04c.009.016.022.028.031.043.01.014.007.019.013.028a.715.715 0 01.085.649 25.19 25.19 0 00-.542 1.729 6.028 6.028 0 01-1.598 2.747l-3.975 3.079a.767.767 0 10.94 1.212l4.01-3.105a.68.68 0 00.063-.055 7.57 7.57 0 002.042-3.477 23.68 23.68 0 01.512-1.635c.081-.238.124-.486.126-.737a2.24 2.24 0 00-.07-.529l.319-.183a7.635 7.635 0 002.472-2.27c.263-.38.58-.72.942-1.01a7.722 7.722 0 002.57-3.924l.5-1.68a.562.562 0 01.294-.337.633.633 0 01.514-.02.584.584 0 01.351.55l-.002 2.763z"/><path d="M19.503 11.565a8.825 8.825 0 00-4.933 7.809 8.316 8.316 0 004.78 7.737c.156.077.29.192.392.333a3.986 3.986 0 006.526-.014 1 1 0 01.372-.314 8.352 8.352 0 004.793-7.5c0-3.778-1.904-6.867-4.97-8.064a.634.634 0 01-.396-.589V7.961a1.993 1.993 0 011.161-1.82 1.637 1.637 0 00-.802-3.074h-.36v-1.33A1.735 1.735 0 0024.33 0h-2.66c-.959 0-1.736.778-1.737 1.737v1.33h-.36a1.649 1.649 0 00-1.652 1.641c0 .597.326 1.147.851 1.432.708.283 1.17.972 1.161 1.734v3.09a.673.673 0 01-.43.601zm1.964-9.828c0-.113.09-.204.203-.204h2.66c.112 0 .203.091.203.204v1.33h-3.066v-1.33zm-1.96 3.057a.097.097 0 01-.053-.087.113.113 0 01.12-.107h6.852a.115.115 0 01.12.108c0 .036-.02.07-.052.086a3.514 3.514 0 00-1.96 3.167v3.002c.001.89.545 1.69 1.372 2.019 2.46.96 3.994 3.501 3.994 6.635a6.812 6.812 0 01-3.916 6.113 2.538 2.538 0 00-.95.791A2.403 2.403 0 0123 27.6a2.361 2.361 0 01-2.025-1.066 2.585 2.585 0 00-.965-.808 6.785 6.785 0 01-3.91-6.308 7.366 7.366 0 014.02-6.45 2.215 2.215 0 001.347-2.005V7.874a3.366 3.366 0 00-1.96-3.08zm13.684 3.097l-1.533 1.534a.767.767 0 101.084 1.084l1.533-1.534a.767.767 0 00-1.084-1.084zm-.224 4.376c0 .423.343.766.767.766h1.533a.767.767 0 000-1.533h-1.534a.767.767 0 00-.766.767zM13.8 10.733a.767.767 0 00.542-1.308L12.809 7.89a.767.767 0 00-1.084 1.084l1.533 1.534a.767.767 0 00.542.224zm-3.833 1.534c0 .423.343.766.766.766h1.534a.767.767 0 000-1.533h-1.534a.767.767 0 00-.766.767z"/></g><defs><clipPath id="clip0_33_261"><path fill="#fff" d="M0 0h46v46H0z"/></clipPath></defs></svg>