<svg width="48" height="48" fill="none" xmlns="http://www.w3.org/2000/svg"><path d="M47.268 35.2a34.941 34.941 0 00-5.67.08v-1.027a2.341 2.341 0 001.299-1.053 2.251 2.251 0 00-.02-2.286 17.13 17.13 0 00-1.12-1.643 1.252 1.252 0 00-1.92 0 17.275 17.275 0 00-1.12 1.641A2.254 2.254 0 0038.7 33.2c.288.5.751.875 1.3 1.055v1.2a27.487 27.487 0 00-10.811 3.592 34.055 34.055 0 01-7.895-2.495 27.635 27.635 0 004.871-2.461l.08-.05a6.41 6.41 0 00.255-.16c11.305-7.385 20.227-6.68 20.603-6.643a.8.8 0 00.144-1.593c-.27-.025-4.725-.377-11.247 1.81v-1.946a3.92 3.92 0 002.537-1.84 4.351 4.351 0 00.113-4.26 36.812 36.812 0 00-2.148-3.515 1.567 1.567 0 00-2.604 0 36.812 36.812 0 00-2.148 3.516 4.352 4.352 0 00.113 4.26 3.92 3.92 0 002.537 1.84v2.52c-1.07.41-2.187.885-3.343 1.44a6.385 6.385 0 00-11.114.355 46.79 46.79 0 00-5.54-2.518V25.14a3.162 3.162 0 001.827-1.414 3.873 3.873 0 00.172-3.732 31.121 31.121 0 00-1.639-2.889 1.36 1.36 0 00-2.327 0 30.93 30.93 0 00-1.633 2.89 3.873 3.873 0 00.175 3.731 3.163 3.163 0 001.825 1.414v1.6a40.523 40.523 0 00-5.6-1.446v-.892a2.41 2.41 0 001.179-.973 2.85 2.85 0 00.13-2.746 20.865 20.865 0 00-1.109-1.953 1.214 1.214 0 00-2 0 20.95 20.95 0 00-1.107 1.952 2.852 2.852 0 00.13 2.746c.276.444.69.786 1.177.974v.64a25.255 25.255 0 00-4.799-.24.802.802 0 00.117 1.6c.895-.065 9.056-.465 19.486 5.495a28.003 28.003 0 003.486 1.68 25.907 25.907 0 01-4.16 1.828 46.207 46.207 0 00-2.26-3.45 1.801 1.801 0 00-2.93 0c-.21.292-.453.64-.71 1.015A33.656 33.656 0 00.732 31.2a.803.803 0 10.141 1.6 32.76 32.76 0 0112.05 1.544c-.365.577-.738 1.2-1.097 1.84a4.87 4.87 0 00.058 4.879 4.739 4.739 0 003.36 2.301v2.354a30.944 30.944 0 01-6.215.657l-8.226.023a.8.8 0 100 1.6l8.228-.023a32.467 32.467 0 006.973-.785c.013 0 .024.008.038.008a.783.783 0 00.354-.092 30.151 30.151 0 007.374-2.772 51.526 51.526 0 005.234-3.264c.247-.18.502-.345.77-.51 7.153-4.597 17.25-3.773 17.35-3.76a.804.804 0 00.144-1.6zM33.232 22.848a2.708 2.708 0 01-.069-2.686c.711-1.343 1.509-2.567 2.02-3.36a35.375 35.375 0 012.052 3.36 2.708 2.708 0 01-.069 2.686 2.254 2.254 0 01-3.934 0zm-26.21-.266a.748.748 0 01-.62.387.748.748 0 01-.62-.387 1.243 1.243 0 01-.052-1.195c.221-.448.459-.873.672-1.232.214.36.452.784.673 1.233.188.38.168.831-.053 1.194zm5.31.3a2.263 2.263 0 01-.098-2.18c.463-.94.972-1.808 1.367-2.443a28.81 28.81 0 011.368 2.442 2.263 2.263 0 01-.098 2.18 1.433 1.433 0 01-2.539 0zm9.016 7.705A4.803 4.803 0 0125.6 28a4.787 4.787 0 014.026 2.19 48.749 48.749 0 00-3.976 2.334 26.272 26.272 0 01-4.302-1.938zM16 41.828a3.164 3.164 0 01-2.738-1.578v.003a3.28 3.28 0 01-.038-3.291 42.863 42.863 0 012.61-4.074.202.202 0 01.333 0 42.84 42.84 0 012.61 4.072 3.28 3.28 0 01-.039 3.29A3.164 3.164 0 0116 41.828zm7.013 1.098a28.44 28.44 0 01-6.17 2.416v-1.994a4.737 4.737 0 003.274-2.284 4.88 4.88 0 00.655-2.996 37.373 37.373 0 006.539 2.224 48.914 48.914 0 01-4.298 2.634zm17.784-10.15a.866.866 0 01-.708-.368.656.656 0 01.007-.68c.23-.39.48-.76.701-1.067.221.307.471.677.702 1.067.129.208.132.47.007.68a.866.866 0 01-.709.368zM12.402 12.802h2.04a2.795 2.795 0 002.76 2.4H24.4a2.8 2.8 0 00.32-5.581 4.006 4.006 0 00-3.92-3.218c-.366.004-.73.06-1.082.165a3.988 3.988 0 00-7.64.653 2.8 2.8 0 00.324 5.581zm8.399-4.8a2.4 2.4 0 012.4 2.4.8.8 0 00.8.8h.4a1.2 1.2 0 011.2 1.2 1.193 1.193 0 01-1.2 1.2h-7.2a1.2 1.2 0 010-2.4h.4a.8.8 0 00.8-.8 2.4 2.4 0 012.4-2.4zm-9.25 1.15a1.2 1.2 0 01.85-.35h.4a.8.8 0 00.8-.8 2.4 2.4 0 014.692-.708 4 4 0 00-1.412 2.327 2.74 2.74 0 00-2.201 1.581h-2.278a1.2 1.2 0 01-1.2-1.2 1.193 1.193 0 01.35-.85zm21.649-.35h7.198a2.8 2.8 0 00.32-5.58 4 4 0 00-7.845 0 2.8 2.8 0 00.326 5.58zm-.851-3.65c.225-.225.532-.35.85-.349h.4a.8.8 0 00.8-.8 2.4 2.4 0 014.8 0 .8.8 0 00.8.8h.4a1.2 1.2 0 010 2.4h-7.2a1.2 1.2 0 01-.85-2.05z" fill="#fff"/></svg>