<svg width="46" height="40" fill="none" xmlns="http://www.w3.org/2000/svg"><path d="M42.132 18.207a2.85 2.85 0 00.725-2.94 2.851 2.851 0 00-2.316-1.953l-9.685-1.408a1.265 1.265 0 01-.953-.692l-4.33-8.776A2.851 2.851 0 0023 .838a2.851 2.851 0 00-2.572 1.6l-4.33 8.776a1.266 1.266 0 01-.955.692l-9.685 1.409a2.85 2.85 0 00-2.315 1.952 2.85 2.85 0 00.725 2.94l7.008 6.83c.299.292.436.712.365 1.122l-1.654 9.646a2.85 2.85 0 001.14 2.805 2.845 2.845 0 003.022.218l8.661-4.554c.37-.194.81-.194 1.18 0l8.662 4.554a2.858 2.858 0 003.021-.219 2.85 2.85 0 001.14-2.804L34.76 26.16a1.27 1.27 0 01.365-1.122l7.008-6.831zM33.18 26.43l1.654 9.646c.083.485-.105.949-.504 1.239-.4.289-.897.324-1.333.097l-8.663-4.556a2.88 2.88 0 00-2.67.001l-8.661 4.555a1.249 1.249 0 01-1.334-.097 1.245 1.245 0 01-.504-1.24l1.654-9.645a2.87 2.87 0 00-.825-2.539L4.986 17.06a1.241 1.241 0 01-.32-1.298c.152-.47.534-.792 1.022-.863l9.684-1.407a2.865 2.865 0 002.16-1.57l4.331-8.776A1.243 1.243 0 0123 2.441c.494 0 .918.263 1.137.705l4.33 8.777a2.863 2.863 0 002.16 1.569l9.685 1.407c.488.071.87.393 1.022.863.152.468.033.953-.32 1.298l-7.008 6.83a2.868 2.868 0 00-.824 2.54z" fill="#fff"/><path d="M6.052 27.315L2.01 29.65c-.558.322-1.234.195-1.51-.283s-.048-1.127.51-1.45l4.042-2.333c.558-.322 1.234-.195 1.51.283s.048 1.127-.51 1.45zm29.22-19.616l3.085-3.501c.426-.484.436-1.172.022-1.537-.415-.365-1.096-.27-1.522.214L33.77 6.376c-.426.484-.435 1.172-.02 1.537.414.365 1.095.27 1.52-.214zm4.272 21.287l4.041 2.334c.558.322 1.234.195 1.51-.283.277-.478.048-1.127-.51-1.45l-4.041-2.333c-.558-.322-1.235-.195-1.51.283-.277.478-.048 1.127.51 1.45zM10.857 7.699L7.77 4.198c-.426-.484-.435-1.172-.02-1.537.414-.365 1.095-.27 1.52.214l3.086 3.501c.426.484.436 1.172.022 1.537-.415.365-1.096.27-1.522-.214z" fill="#fff"/></svg>