<svg width="58" height="58" fill="none" xmlns="http://www.w3.org/2000/svg"><g clip-path="url(#clip0_33_176)"><path d="M39.028 7.795V2.45c0-.8-.65-1.45-1.45-1.45h-4.352c-.8 0-1.45.65-1.45 1.45v.852l-6.469 1.18a3.63 3.63 0 00-1.944 1.03l-4.732 4.854a2.17 2.17 0 00.11 3.162c.387.342.886.53 1.402.526.457 0 .904-.14 1.282-.397l4.663-3.156.01.024a2.908 2.908 0 003.163 1.789l2.039-.335c.294-.048.595-.038.885.032l1.101.279c.943.22 1.93.151 2.833-.2a4.592 4.592 0 002.91-4.295zm-1.45 0a3.15 3.15 0 01-1.994 2.945 3.373 3.373 0 01-1.955.138l-1.096-.278a3.662 3.662 0 00-1.469-.054l-2.04.334a1.45 1.45 0 01-1.558-.846l2.802-.798a4.757 4.757 0 002.021-1.192.725.725 0 10-1.026-1.025c-.39.387-.87.67-1.397.824l-3.575 1.015c-.32.078-.627.203-.91.372l-4.769 3.229a.752.752 0 01-.91-.012.739.739 0 01-.255-.539.693.693 0 01.205-.515l.01-.01 4.734-4.86c.316-.323.726-.54 1.171-.621l6.468-1.176a1.45 1.45 0 001.191-1.424V2.45h4.352v5.345zM50.26 40.028h5.344c.8 0 1.45-.65 1.45-1.45v-4.352c0-.8-.65-1.45-1.45-1.45h-.852l-1.179-6.469a3.63 3.63 0 00-1.03-1.944l-4.854-4.732a2.17 2.17 0 00-3.163.11A2.104 2.104 0 0044 21.142c.001.457.14.904.398 1.282l3.156 4.663-.025.01a2.908 2.908 0 00-1.788 3.163l.334 2.039a2.23 2.23 0 01-.031.885l-.28 1.101a4.794 4.794 0 00.2 2.833 4.591 4.591 0 004.296 2.91zm0-1.45a3.15 3.15 0 01-2.946-1.994 3.372 3.372 0 01-.137-1.955l.277-1.096c.117-.48.136-.98.055-1.469l-.335-2.04a1.45 1.45 0 01.847-1.558l.797 2.802a4.757 4.757 0 001.192 2.021.725.725 0 101.025-1.026c-.387-.39-.67-.87-.823-1.397l-1.016-3.575a3.298 3.298 0 00-.372-.91l-3.228-4.769a.751.751 0 01.012-.91.739.739 0 01.538-.255.693.693 0 01.515.205l.01.01 4.86 4.734c.323.316.54.726.622 1.171l1.175 6.468a1.45 1.45 0 001.424 1.191h.852v4.352H50.26zM20 51.26v5.344c0 .8.65 1.45 1.45 1.45h4.352c.801 0 1.45-.65 1.45-1.45v-.852l6.469-1.179a3.63 3.63 0 001.944-1.03l4.732-4.855a2.17 2.17 0 00-.11-3.162A2.103 2.103 0 0038.886 45c-.457.001-.904.14-1.282.397l-4.663 3.157-.01-.025a2.908 2.908 0 00-3.162-1.789l-2.04.335a2.228 2.228 0 01-.885-.031l-1.101-.28a4.795 4.795 0 00-2.833.2A4.591 4.591 0 0020 51.259zm1.45 0a3.15 3.15 0 011.994-2.946 3.373 3.373 0 011.955-.138l1.096.278c.481.117.98.136 1.469.055l2.04-.335a1.45 1.45 0 011.558.847l-2.802.797a4.758 4.758 0 00-2.021 1.192.726.726 0 101.026 1.025c.39-.387.87-.67 1.397-.823l3.575-1.016c.32-.078.627-.203.91-.372l4.77-3.229a.751.751 0 01.91.013.74.74 0 01.255.538.693.693 0 01-.206.515l-.01.01-4.733 4.86a2.19 2.19 0 01-1.172.621l-6.468 1.176a1.45 1.45 0 00-1.191 1.424v.852h-4.351v-5.345zM6.795 20H1.45C.65 20 0 20.65 0 21.45v4.352c0 .801.65 1.45 1.45 1.45h.852l1.18 6.469a3.63 3.63 0 001.03 1.944l4.854 4.732a2.17 2.17 0 003.162-.109c.342-.387.53-.886.526-1.403a2.287 2.287 0 00-.397-1.282L9.5 32.94l.024-.01a2.908 2.908 0 001.789-3.162l-.335-2.04a2.228 2.228 0 01.032-.885l.279-1.101a4.795 4.795 0 00-.2-2.833A4.592 4.592 0 006.795 20zm0 1.45a3.15 3.15 0 012.945 1.994c.238.624.286 1.304.138 1.955L9.6 26.495c-.117.481-.136.98-.054 1.469l.334 2.04a1.45 1.45 0 01-.846 1.558l-.798-2.802a4.757 4.757 0 00-1.192-2.02.725.725 0 10-1.025 1.025c.387.39.67.87.824 1.397l1.015 3.575c.078.32.203.627.372.91l3.229 4.77a.752.752 0 01-.012.91.738.738 0 01-.539.255.693.693 0 01-.515-.206l-.01-.01-4.86-4.733a2.185 2.185 0 01-.621-1.172l-1.176-6.468a1.45 1.45 0 00-1.424-1.19H1.45V21.45h5.345z" fill="#fff"/><mask id="path-5-outside-1_33_176" maskUnits="userSpaceOnUse" x="13.332" y="14.332" width="30" height="30" fill="#000"><path fill="#fff" d="M13.332 14.332h30v30h-30z"/><path d="M42.06 24.557a14.327 14.327 0 00-13.395-9.225 14.21 14.21 0 00-3.912.541l-.019.006a14.252 14.252 0 00-8.403 6.483.479.479 0 00-.063.181 4.603 4.603 0 00-.566.99l-.036.078a14.348 14.348 0 0012.999 20.39 14.267 14.267 0 009.032-3.213c.207.017.4-.101.48-.293a.486.486 0 00.025-.137 14.327 14.327 0 003.858-15.8zm-17.376-7.662a3.537 3.537 0 002.568 1.297c.274.007.548-.005.82-.036.44-.1.901-.045 1.306.156a.603.603 0 01.311.625 1.567 1.567 0 01-.419.492c-.428.29-.686.773-.69 1.29.033.322.205.614.472.797.394.264.88.352 1.342.243a4.35 4.35 0 00.744-.27c.217-.106.447-.185.685-.234.607-.086 1.23.315 1.865.772.319.23.838.666.73.996-.082.254-.391.437-.718.631a6.158 6.158 0 00-.411.26c-.53.4-1.11.729-1.725.977-.233.078-.47.142-.71.192-.5.087-.98.263-1.419.518-.88.568-.773 1.478-.705 2.024a.607.607 0 01-.052-.02 4.365 4.365 0 01-.242-.109 1.579 1.579 0 00-2.46 1.387c0 1.137.845 1.8 1.523 2.333l.236.187c.15.137.285.29.402.456-.963-.242-1.927-.48-2.891-.715-.811-.196-1.63-.438-1.965-1.038a2.985 2.985 0 01-.256-.859 3.179 3.179 0 00-.486-1.324 3.27 3.27 0 00-1.88-1.04l-.089-.026c-.718-.214-1.112-.47-1.24-.808a1.955 1.955 0 01.202-1.28c.27-.563.36-1.197.258-1.813a1.602 1.602 0 00-.86-1.085 1.903 1.903 0 00-.827-.177c-.06 0-.123.002-.185.007a13.267 13.267 0 016.766-4.806zm1.967 25.992l.005.004a6.084 6.084 0 01-.547-.342 1.588 1.588 0 01-.727-1.087c.027-.29.12-.568.273-.815a3.13 3.13 0 00.236-.715c.03-.225.113-.439.24-.626a1.56 1.56 0 01.484-.301c.2-.089.39-.198.568-.326.382-.305.699-.683.932-1.113.113-.197.21-.412.304-.623.127-.333.305-.645.527-.925.48-.505 1.423-.13 1.805.053.73.328 1.4.773 1.986 1.318l.055.057c.62.655 1.28 1.272 1.976 1.846a8.43 8.43 0 001.876 1.096 13.361 13.361 0 01-9.993 2.5zm10.84-3.18a8.305 8.305 0 01-2.121-1.16 21.237 21.237 0 01-1.89-1.769l-.055-.056a8.107 8.107 0 00-2.252-1.51c-1.212-.581-2.275-.527-2.917.151a4.19 4.19 0 00-.706 1.19c-.086.189-.17.375-.262.538-.17.319-.403.6-.683.828a2.31 2.31 0 01-.4.224 2.37 2.37 0 00-.78.52 2.238 2.238 0 00-.464 1.048 2.364 2.364 0 01-.156.498 2.697 2.697 0 00-.38 1.256c.007.348.109.688.294.983a13.394 13.394 0 01-8.184-18.432l.037-.079a2.9 2.9 0 01.572-.93.994.994 0 01.306-.208 1.67 1.67 0 01.657-.144.947.947 0 01.406.082.65.65 0 01.348.46c.042.429-.038.86-.23 1.246a2.722 2.722 0 00-.198 1.95c.321.84 1.218 1.193 1.869 1.386l.096.027c.517.083.997.323 1.373.689.17.288.278.61.317.942.059.396.18.78.36 1.14.523.937 1.604 1.266 2.576 1.5 1.043.254 2.086.513 3.13.776a1 1 0 00.646-.008.728.728 0 00.456-.569c.11-.726-.894-1.599-.91-1.611l-.252-.2c-.595-.467-1.157-.908-1.157-1.582a.71.71 0 01.415-.66c.18-.074.329-.02.677.144.096.045.192.09.28.126a.99.99 0 001.14-.144.973.973 0 00.232-.831c-.079-.64-.048-.903.274-1.112a3.527 3.527 0 011.116-.387c.276-.06.548-.134.815-.225a8.524 8.524 0 001.98-1.117c.096-.067.206-.131.318-.197a2.25 2.25 0 001.143-1.16c.226-.692-.138-1.39-1.082-2.07-.606-.435-1.525-1.092-2.563-.943-.322.06-.634.162-.929.305a3.6 3.6 0 01-.583.216.762.762 0 01-.563-.089c-.07-.05-.074-.09-.075-.105-.01-.125.143-.279.383-.5a2.25 2.25 0 00.676-.878 1.533 1.533 0 00-.705-1.756 2.827 2.827 0 00-1.904-.298 4.944 4.944 0 01-.687.033 2.61 2.61 0 01-1.556-.623 13.369 13.369 0 0111.752 23.094z"/></mask><path d="M42.06 24.557a14.327 14.327 0 00-13.395-9.225 14.21 14.21 0 00-3.912.541l-.019.006a14.252 14.252 0 00-8.403 6.483.479.479 0 00-.063.181 4.603 4.603 0 00-.566.99l-.036.078a14.348 14.348 0 0012.999 20.39 14.267 14.267 0 009.032-3.213c.207.017.4-.101.48-.293a.486.486 0 00.025-.137 14.327 14.327 0 003.858-15.8zm-17.376-7.662a3.537 3.537 0 002.568 1.297c.274.007.548-.005.82-.036.44-.1.901-.045 1.306.156a.603.603 0 01.311.625 1.567 1.567 0 01-.419.492c-.428.29-.686.773-.69 1.29.033.322.205.614.472.797.394.264.88.352 1.342.243a4.35 4.35 0 00.744-.27c.217-.106.447-.185.685-.234.607-.086 1.23.315 1.865.772.319.23.838.666.73.996-.082.254-.391.437-.718.631a6.158 6.158 0 00-.411.26c-.53.4-1.11.729-1.725.977-.233.078-.47.142-.71.192-.5.087-.98.263-1.419.518-.88.568-.773 1.478-.705 2.024a.607.607 0 01-.052-.02 4.365 4.365 0 01-.242-.109 1.579 1.579 0 00-2.46 1.387c0 1.137.845 1.8 1.523 2.333l.236.187c.15.137.285.29.402.456-.963-.242-1.927-.48-2.891-.715-.811-.196-1.63-.438-1.965-1.038a2.985 2.985 0 01-.256-.859 3.179 3.179 0 00-.486-1.324 3.27 3.27 0 00-1.88-1.04l-.089-.026c-.718-.214-1.112-.47-1.24-.808a1.955 1.955 0 01.202-1.28c.27-.563.36-1.197.258-1.813a1.602 1.602 0 00-.86-1.085 1.903 1.903 0 00-.827-.177c-.06 0-.123.002-.185.007a13.267 13.267 0 016.766-4.806zm1.967 25.992l.005.004a6.084 6.084 0 01-.547-.342 1.588 1.588 0 01-.727-1.087c.027-.29.12-.568.273-.815a3.13 3.13 0 00.236-.715c.03-.225.113-.439.24-.626a1.56 1.56 0 01.484-.301c.2-.089.39-.198.568-.326.382-.305.699-.683.932-1.113.113-.197.21-.412.304-.623.127-.333.305-.645.527-.925.48-.505 1.423-.13 1.805.053.73.328 1.4.773 1.986 1.318l.055.057c.62.655 1.28 1.272 1.976 1.846a8.43 8.43 0 001.876 1.096 13.361 13.361 0 01-9.993 2.5zm10.84-3.18a8.305 8.305 0 01-2.121-1.16 21.237 21.237 0 01-1.89-1.769l-.055-.056a8.107 8.107 0 00-2.252-1.51c-1.212-.581-2.275-.527-2.917.151a4.19 4.19 0 00-.706 1.19c-.086.189-.17.375-.262.538-.17.319-.403.6-.683.828a2.31 2.31 0 01-.4.224 2.37 2.37 0 00-.78.52 2.238 2.238 0 00-.464 1.048 2.364 2.364 0 01-.156.498 2.697 2.697 0 00-.38 1.256c.007.348.109.688.294.983a13.394 13.394 0 01-8.184-18.432l.037-.079a2.9 2.9 0 01.572-.93.994.994 0 01.306-.208 1.67 1.67 0 01.657-.144.947.947 0 01.406.082.65.65 0 01.348.46c.042.429-.038.86-.23 1.246a2.722 2.722 0 00-.198 1.95c.321.84 1.218 1.193 1.869 1.386l.096.027c.517.083.997.323 1.373.689.17.288.278.61.317.942.059.396.18.78.36 1.14.523.937 1.604 1.266 2.576 1.5 1.043.254 2.086.513 3.13.776a1 1 0 00.646-.008.728.728 0 00.456-.569c.11-.726-.894-1.599-.91-1.611l-.252-.2c-.595-.467-1.157-.908-1.157-1.582a.71.71 0 01.415-.66c.18-.074.329-.02.677.144.096.045.192.09.28.126a.99.99 0 001.14-.144.973.973 0 00.232-.831c-.079-.64-.048-.903.274-1.112a3.527 3.527 0 011.116-.387c.276-.06.548-.134.815-.225a8.524 8.524 0 001.98-1.117c.096-.067.206-.131.318-.197a2.25 2.25 0 001.143-1.16c.226-.692-.138-1.39-1.082-2.07-.606-.435-1.525-1.092-2.563-.943-.322.06-.634.162-.929.305a3.6 3.6 0 01-.583.216.762.762 0 01-.563-.089c-.07-.05-.074-.09-.075-.105-.01-.125.143-.279.383-.5a2.25 2.25 0 00.676-.878 1.533 1.533 0 00-.705-1.756 2.827 2.827 0 00-1.904-.298 4.944 4.944 0 01-.687.033 2.61 2.61 0 01-1.556-.623 13.369 13.369 0 0111.752 23.094z" fill="#fff"/><path d="M42.06 24.557a14.327 14.327 0 00-13.395-9.225 14.21 14.21 0 00-3.912.541l-.019.006a14.252 14.252 0 00-8.403 6.483.479.479 0 00-.063.181 4.603 4.603 0 00-.566.99l-.036.078a14.348 14.348 0 0012.999 20.39 14.267 14.267 0 009.032-3.213c.207.017.4-.101.48-.293a.486.486 0 00.025-.137 14.327 14.327 0 003.858-15.8zm-17.376-7.662a3.537 3.537 0 002.568 1.297c.274.007.548-.005.82-.036.44-.1.901-.045 1.306.156a.603.603 0 01.311.625 1.567 1.567 0 01-.419.492c-.428.29-.686.773-.69 1.29.033.322.205.614.472.797.394.264.88.352 1.342.243a4.35 4.35 0 00.744-.27c.217-.106.447-.185.685-.234.607-.086 1.23.315 1.865.772.319.23.838.666.73.996-.082.254-.391.437-.718.631a6.158 6.158 0 00-.411.26c-.53.4-1.11.729-1.725.977-.233.078-.47.142-.71.192-.5.087-.98.263-1.419.518-.88.568-.773 1.478-.705 2.024a.607.607 0 01-.052-.02 4.365 4.365 0 01-.242-.109 1.579 1.579 0 00-2.46 1.387c0 1.137.845 1.8 1.523 2.333l.236.187c.15.137.285.29.402.456-.963-.242-1.927-.48-2.891-.715-.811-.196-1.63-.438-1.965-1.038a2.985 2.985 0 01-.256-.859 3.179 3.179 0 00-.486-1.324 3.27 3.27 0 00-1.88-1.04l-.089-.026c-.718-.214-1.112-.47-1.24-.808a1.955 1.955 0 01.202-1.28c.27-.563.36-1.197.258-1.813a1.602 1.602 0 00-.86-1.085 1.903 1.903 0 00-.827-.177c-.06 0-.123.002-.185.007a13.267 13.267 0 016.766-4.806zm1.967 25.992l.005.004a6.084 6.084 0 01-.547-.342 1.588 1.588 0 01-.727-1.087c.027-.29.12-.568.273-.815a3.13 3.13 0 00.236-.715c.03-.225.113-.439.24-.626a1.56 1.56 0 01.484-.301c.2-.089.39-.198.568-.326.382-.305.699-.683.932-1.113.113-.197.21-.412.304-.623.127-.333.305-.645.527-.925.48-.505 1.423-.13 1.805.053.73.328 1.4.773 1.986 1.318l.055.057c.62.655 1.28 1.272 1.976 1.846a8.43 8.43 0 001.876 1.096 13.361 13.361 0 01-9.993 2.5zm10.84-3.18a8.305 8.305 0 01-2.121-1.16 21.237 21.237 0 01-1.89-1.769l-.055-.056a8.107 8.107 0 00-2.252-1.51c-1.212-.581-2.275-.527-2.917.151a4.19 4.19 0 00-.706 1.19c-.086.189-.17.375-.262.538-.17.319-.403.6-.683.828a2.31 2.31 0 01-.4.224 2.37 2.37 0 00-.78.52 2.238 2.238 0 00-.464 1.048 2.364 2.364 0 01-.156.498 2.697 2.697 0 00-.38 1.256c.007.348.109.688.294.983a13.394 13.394 0 01-8.184-18.432l.037-.079a2.9 2.9 0 01.572-.93.994.994 0 01.306-.208 1.67 1.67 0 01.657-.144.947.947 0 01.406.082.65.65 0 01.348.46c.042.429-.038.86-.23 1.246a2.722 2.722 0 00-.198 1.95c.321.84 1.218 1.193 1.869 1.386l.096.027c.517.083.997.323 1.373.689.17.288.278.61.317.942.059.396.18.78.36 1.14.523.937 1.604 1.266 2.576 1.5 1.043.254 2.086.513 3.13.776a1 1 0 00.646-.008.728.728 0 00.456-.569c.11-.726-.894-1.599-.91-1.611l-.252-.2c-.595-.467-1.157-.908-1.157-1.582a.71.71 0 01.415-.66c.18-.074.329-.02.677.144.096.045.192.09.28.126a.99.99 0 001.14-.144.973.973 0 00.232-.831c-.079-.64-.048-.903.274-1.112a3.527 3.527 0 011.116-.387c.276-.06.548-.134.815-.225a8.524 8.524 0 001.98-1.117c.096-.067.206-.131.318-.197a2.25 2.25 0 001.143-1.16c.226-.692-.138-1.39-1.082-2.07-.606-.435-1.525-1.092-2.563-.943-.322.06-.634.162-.929.305a3.6 3.6 0 01-.583.216.762.762 0 01-.563-.089c-.07-.05-.074-.09-.075-.105-.01-.125.143-.279.383-.5a2.25 2.25 0 00.676-.878 1.533 1.533 0 00-.705-1.756 2.827 2.827 0 00-1.904-.298 4.944 4.944 0 01-.687.033 2.61 2.61 0 01-1.556-.623 13.369 13.369 0 0111.752 23.094z" stroke="#fff" stroke-width=".6" mask="url(#path-5-outside-1_33_176)"/></g><defs><clipPath id="clip0_33_176"><path fill="#fff" d="M0 0h58v58H0z"/></clipPath></defs></svg>